<mxfile host="app.diagrams.net" modified="2024-04-02T06:40:24.913Z" agent="Mozilla/5.0 (Windows NT 10.0; Win64; x64) AppleWebKit/537.36 (KHTML, like Gecko) Chrome/122.0.0.0 Safari/537.36 Edg/122.0.0.0" etag="M__pMyycDk3gr_5sm2vV" version="22.1.21" type="github">
  <diagram name="Page-1" id="sQC1HF0_hmsGm-GXC8HU">
    <mxGraphModel dx="1386" dy="793" grid="1" gridSize="10" guides="1" tooltips="1" connect="1" arrows="1" fold="1" page="1" pageScale="1" pageWidth="850" pageHeight="1100" math="0" shadow="0">
      <root>
        <mxCell id="0" />
        <mxCell id="1" parent="0" />
        <mxCell id="9z_kRIzDohiJ9R-2ccIR-1" value="STFT" style="rounded=0;whiteSpace=wrap;html=1;fontFamily=Times New Roman;" vertex="1" parent="1">
          <mxGeometry x="170" y="200" width="50" height="30" as="geometry" />
        </mxCell>
        <mxCell id="9z_kRIzDohiJ9R-2ccIR-2" value="|·|&lt;sup&gt;p&lt;/sup&gt;" style="rounded=0;whiteSpace=wrap;html=1;fontFamily=Times New Roman;" vertex="1" parent="1">
          <mxGeometry x="280" y="200" width="50" height="30" as="geometry" />
        </mxCell>
        <mxCell id="9z_kRIzDohiJ9R-2ccIR-3" value="含噪语音相位" style="rounded=0;whiteSpace=wrap;html=1;" vertex="1" parent="1">
          <mxGeometry x="220" y="260" width="20" height="100" as="geometry" />
        </mxCell>
        <mxCell id="9z_kRIzDohiJ9R-2ccIR-4" value="iSTFT" style="rounded=0;whiteSpace=wrap;html=1;fontFamily=Times New Roman;" vertex="1" parent="1">
          <mxGeometry x="170" y="390" width="50" height="30" as="geometry" />
        </mxCell>
        <mxCell id="9z_kRIzDohiJ9R-2ccIR-5" value="噪声估计" style="rounded=0;whiteSpace=wrap;html=1;" vertex="1" parent="1">
          <mxGeometry x="440" y="260" width="50" height="30" as="geometry" />
        </mxCell>
      </root>
    </mxGraphModel>
  </diagram>
</mxfile>
